<mxfile host="app.diagrams.net" agent="Mozilla/5.0 (Windows NT 10.0; Win64; x64) AppleWebKit/537.36 (KHTML, like Gecko) Chrome/135.0.0.0 Safari/537.36" version="26.2.13">
  <diagram name="Page-1" id="yCbKzMOgJLgvB37lc6Hu">
    <mxGraphModel dx="2278" dy="823" grid="1" gridSize="10" guides="1" tooltips="1" connect="1" arrows="1" fold="1" page="1" pageScale="1" pageWidth="850" pageHeight="1100" math="0" shadow="0">
      <root>
        <mxCell id="0" />
        <mxCell id="1" parent="0" />
        <mxCell id="sgRpY-t1hcTvcgmv33BL-3" value="SOAR EDR PLAYBOOK" style="shape=note;whiteSpace=wrap;html=1;backgroundOutline=1;darkOpacity=0.05;" vertex="1" parent="1">
          <mxGeometry x="370" y="60" width="80" height="100" as="geometry" />
        </mxCell>
        <mxCell id="sgRpY-t1hcTvcgmv33BL-10" style="edgeStyle=orthogonalEdgeStyle;rounded=0;orthogonalLoop=1;jettySize=auto;html=1;" edge="1" parent="1" target="sgRpY-t1hcTvcgmv33BL-6">
          <mxGeometry relative="1" as="geometry">
            <mxPoint x="232" y="330" as="sourcePoint" />
          </mxGeometry>
        </mxCell>
        <mxCell id="sgRpY-t1hcTvcgmv33BL-11" value="Detection (Alert)" style="edgeLabel;html=1;align=center;verticalAlign=middle;resizable=0;points=[];" vertex="1" connectable="0" parent="sgRpY-t1hcTvcgmv33BL-10">
          <mxGeometry x="-0.16" relative="1" as="geometry">
            <mxPoint as="offset" />
          </mxGeometry>
        </mxCell>
        <mxCell id="sgRpY-t1hcTvcgmv33BL-4" value="LimeCharlie" style="rounded=1;whiteSpace=wrap;html=1;fillColor=#dae8fc;strokeColor=#6c8ebf;" vertex="1" parent="1">
          <mxGeometry x="108" y="300" width="120" height="60" as="geometry" />
        </mxCell>
        <mxCell id="sgRpY-t1hcTvcgmv33BL-5" value="Slack" style="rounded=1;whiteSpace=wrap;html=1;fillColor=#f8cecc;strokeColor=#b85450;" vertex="1" parent="1">
          <mxGeometry x="192" y="470" width="120" height="60" as="geometry" />
        </mxCell>
        <mxCell id="sgRpY-t1hcTvcgmv33BL-8" style="rounded=0;orthogonalLoop=1;jettySize=auto;html=1;exitX=0.25;exitY=1;exitDx=0;exitDy=0;entryX=0.5;entryY=0;entryDx=0;entryDy=0;" edge="1" parent="1" source="sgRpY-t1hcTvcgmv33BL-6" target="sgRpY-t1hcTvcgmv33BL-5">
          <mxGeometry relative="1" as="geometry" />
        </mxCell>
        <mxCell id="sgRpY-t1hcTvcgmv33BL-12" value="Send message with details" style="edgeLabel;html=1;align=center;verticalAlign=middle;resizable=0;points=[];" vertex="1" connectable="0" parent="sgRpY-t1hcTvcgmv33BL-8">
          <mxGeometry x="-0.1059" relative="1" as="geometry">
            <mxPoint as="offset" />
          </mxGeometry>
        </mxCell>
        <mxCell id="sgRpY-t1hcTvcgmv33BL-9" style="rounded=0;orthogonalLoop=1;jettySize=auto;html=1;exitX=0.75;exitY=1;exitDx=0;exitDy=0;entryX=0.5;entryY=0;entryDx=0;entryDy=0;" edge="1" parent="1" source="sgRpY-t1hcTvcgmv33BL-6" target="sgRpY-t1hcTvcgmv33BL-7">
          <mxGeometry relative="1" as="geometry" />
        </mxCell>
        <mxCell id="sgRpY-t1hcTvcgmv33BL-13" value="Send message with details" style="edgeLabel;html=1;align=center;verticalAlign=middle;resizable=0;points=[];" vertex="1" connectable="0" parent="sgRpY-t1hcTvcgmv33BL-9">
          <mxGeometry x="-0.2013" y="-2" relative="1" as="geometry">
            <mxPoint as="offset" />
          </mxGeometry>
        </mxCell>
        <mxCell id="sgRpY-t1hcTvcgmv33BL-16" style="edgeStyle=orthogonalEdgeStyle;rounded=0;orthogonalLoop=1;jettySize=auto;html=1;entryX=0.5;entryY=0;entryDx=0;entryDy=0;" edge="1" parent="1" source="sgRpY-t1hcTvcgmv33BL-6" target="sgRpY-t1hcTvcgmv33BL-15">
          <mxGeometry relative="1" as="geometry" />
        </mxCell>
        <mxCell id="sgRpY-t1hcTvcgmv33BL-21" value="Does the user want to isolate the machine" style="edgeLabel;html=1;align=center;verticalAlign=middle;resizable=0;points=[];" vertex="1" connectable="0" parent="sgRpY-t1hcTvcgmv33BL-16">
          <mxGeometry x="-0.1714" y="-1" relative="1" as="geometry">
            <mxPoint as="offset" />
          </mxGeometry>
        </mxCell>
        <mxCell id="sgRpY-t1hcTvcgmv33BL-6" value="Tines" style="rounded=1;whiteSpace=wrap;html=1;fillColor=#e1d5e7;strokeColor=#9673a6;" vertex="1" parent="1">
          <mxGeometry x="362" y="300" width="120" height="60" as="geometry" />
        </mxCell>
        <mxCell id="sgRpY-t1hcTvcgmv33BL-7" value="Email" style="rounded=1;whiteSpace=wrap;html=1;fillColor=#d5e8d4;strokeColor=#82b366;" vertex="1" parent="1">
          <mxGeometry x="522" y="480" width="120" height="60" as="geometry" />
        </mxCell>
        <mxCell id="sgRpY-t1hcTvcgmv33BL-14" value="&lt;div&gt;Message with details contains&lt;/div&gt;&lt;div&gt;Time&lt;/div&gt;&lt;div&gt;-Computer Name&lt;/div&gt;&lt;div&gt;-Source IP&lt;/div&gt;&lt;div&gt;- Process&lt;/div&gt;&lt;div&gt;-Command Line&lt;/div&gt;&lt;div&gt;-File Path&lt;br&gt;-Sensor ID&lt;/div&gt;&lt;div&gt;-Link to the detection(if applicable)&lt;/div&gt;&lt;div&gt;-Username&lt;/div&gt;" style="text;html=1;align=left;verticalAlign=middle;resizable=0;points=[];autosize=1;strokeColor=none;fillColor=none;labelBackgroundColor=default;" vertex="1" parent="1">
          <mxGeometry x="520" y="40" width="210" height="160" as="geometry" />
        </mxCell>
        <mxCell id="sgRpY-t1hcTvcgmv33BL-19" style="edgeStyle=orthogonalEdgeStyle;rounded=0;orthogonalLoop=1;jettySize=auto;html=1;" edge="1" parent="1" source="sgRpY-t1hcTvcgmv33BL-15" target="sgRpY-t1hcTvcgmv33BL-17">
          <mxGeometry relative="1" as="geometry" />
        </mxCell>
        <mxCell id="sgRpY-t1hcTvcgmv33BL-20" style="edgeStyle=orthogonalEdgeStyle;rounded=0;orthogonalLoop=1;jettySize=auto;html=1;entryX=0.5;entryY=0;entryDx=0;entryDy=0;" edge="1" parent="1" source="sgRpY-t1hcTvcgmv33BL-15" target="sgRpY-t1hcTvcgmv33BL-18">
          <mxGeometry relative="1" as="geometry" />
        </mxCell>
        <mxCell id="sgRpY-t1hcTvcgmv33BL-15" value="User prompt" style="rounded=0;whiteSpace=wrap;html=1;" vertex="1" parent="1">
          <mxGeometry x="362" y="570" width="120" height="60" as="geometry" />
        </mxCell>
        <mxCell id="sgRpY-t1hcTvcgmv33BL-23" style="edgeStyle=orthogonalEdgeStyle;rounded=0;orthogonalLoop=1;jettySize=auto;html=1;entryX=0.5;entryY=0;entryDx=0;entryDy=0;" edge="1" parent="1" source="sgRpY-t1hcTvcgmv33BL-17" target="sgRpY-t1hcTvcgmv33BL-22">
          <mxGeometry relative="1" as="geometry" />
        </mxCell>
        <mxCell id="sgRpY-t1hcTvcgmv33BL-17" value="YES" style="rhombus;whiteSpace=wrap;html=1;fillColor=#60a917;strokeColor=#2D7600;fontColor=#ffffff;" vertex="1" parent="1">
          <mxGeometry x="232" y="640" width="80" height="80" as="geometry" />
        </mxCell>
        <mxCell id="sgRpY-t1hcTvcgmv33BL-34" style="edgeStyle=orthogonalEdgeStyle;rounded=0;orthogonalLoop=1;jettySize=auto;html=1;entryX=0.5;entryY=0;entryDx=0;entryDy=0;" edge="1" parent="1" source="sgRpY-t1hcTvcgmv33BL-18" target="sgRpY-t1hcTvcgmv33BL-33">
          <mxGeometry relative="1" as="geometry" />
        </mxCell>
        <mxCell id="sgRpY-t1hcTvcgmv33BL-35" value="The computer &amp;lt;computer&amp;gt; was not isolated, please investigate.&quot;" style="edgeLabel;html=1;align=center;verticalAlign=middle;resizable=0;points=[];" vertex="1" connectable="0" parent="sgRpY-t1hcTvcgmv33BL-34">
          <mxGeometry x="0.025" y="1" relative="1" as="geometry">
            <mxPoint as="offset" />
          </mxGeometry>
        </mxCell>
        <mxCell id="sgRpY-t1hcTvcgmv33BL-18" value="NO" style="rhombus;whiteSpace=wrap;html=1;fillColor=#FF0000;strokeColor=#6F0000;fontColor=#ffffff;" vertex="1" parent="1">
          <mxGeometry x="542" y="640" width="80" height="80" as="geometry" />
        </mxCell>
        <mxCell id="sgRpY-t1hcTvcgmv33BL-31" style="edgeStyle=orthogonalEdgeStyle;rounded=0;orthogonalLoop=1;jettySize=auto;html=1;entryX=0.5;entryY=0;entryDx=0;entryDy=0;" edge="1" parent="1" source="sgRpY-t1hcTvcgmv33BL-22" target="sgRpY-t1hcTvcgmv33BL-30">
          <mxGeometry relative="1" as="geometry" />
        </mxCell>
        <mxCell id="sgRpY-t1hcTvcgmv33BL-32" value="Isolation status &amp;amp; &quot;The computer &amp;lt;computer&amp;gt; has been isolated.&quot;" style="edgeLabel;html=1;align=center;verticalAlign=middle;resizable=0;points=[];" vertex="1" connectable="0" parent="sgRpY-t1hcTvcgmv33BL-31">
          <mxGeometry x="-0.1111" y="-2" relative="1" as="geometry">
            <mxPoint as="offset" />
          </mxGeometry>
        </mxCell>
        <mxCell id="sgRpY-t1hcTvcgmv33BL-22" value="LimeCharlie" style="rounded=1;whiteSpace=wrap;html=1;fillColor=#dae8fc;strokeColor=#6c8ebf;" vertex="1" parent="1">
          <mxGeometry x="212" y="780" width="120" height="60" as="geometry" />
        </mxCell>
        <mxCell id="sgRpY-t1hcTvcgmv33BL-25" value="" style="verticalAlign=top;verticalLabelPosition=bottom;labelPosition=center;align=center;html=1;outlineConnect=0;fillColor=#f0a30a;strokeColor=#BD7000;gradientDirection=north;strokeWidth=2;shape=mxgraph.networks.pc;fontColor=#000000;" vertex="1" parent="1">
          <mxGeometry x="-20" y="775" width="100" height="70" as="geometry" />
        </mxCell>
        <mxCell id="sgRpY-t1hcTvcgmv33BL-27" style="edgeStyle=orthogonalEdgeStyle;rounded=0;orthogonalLoop=1;jettySize=auto;html=1;entryX=0;entryY=0.5;entryDx=0;entryDy=0;" edge="1" parent="1" source="sgRpY-t1hcTvcgmv33BL-26" target="sgRpY-t1hcTvcgmv33BL-4">
          <mxGeometry relative="1" as="geometry" />
        </mxCell>
        <mxCell id="sgRpY-t1hcTvcgmv33BL-36" value="Detect hacktool" style="edgeLabel;html=1;align=center;verticalAlign=middle;resizable=0;points=[];" vertex="1" connectable="0" parent="sgRpY-t1hcTvcgmv33BL-27">
          <mxGeometry x="-0.0204" y="1" relative="1" as="geometry">
            <mxPoint as="offset" />
          </mxGeometry>
        </mxCell>
        <mxCell id="sgRpY-t1hcTvcgmv33BL-26" value="" style="verticalAlign=top;verticalLabelPosition=bottom;labelPosition=center;align=center;html=1;outlineConnect=0;fillColor=#f8cecc;strokeColor=#b85450;gradientDirection=north;strokeWidth=2;shape=mxgraph.networks.pc;" vertex="1" parent="1">
          <mxGeometry x="-90" y="295" width="100" height="70" as="geometry" />
        </mxCell>
        <mxCell id="sgRpY-t1hcTvcgmv33BL-28" style="edgeStyle=orthogonalEdgeStyle;rounded=0;orthogonalLoop=1;jettySize=auto;html=1;entryX=1;entryY=0.5;entryDx=0;entryDy=0;entryPerimeter=0;" edge="1" parent="1" source="sgRpY-t1hcTvcgmv33BL-22" target="sgRpY-t1hcTvcgmv33BL-25">
          <mxGeometry relative="1" as="geometry" />
        </mxCell>
        <mxCell id="sgRpY-t1hcTvcgmv33BL-29" value="Isolate machine" style="edgeLabel;html=1;align=center;verticalAlign=middle;resizable=0;points=[];" vertex="1" connectable="0" parent="sgRpY-t1hcTvcgmv33BL-28">
          <mxGeometry x="0.1515" y="-3" relative="1" as="geometry">
            <mxPoint as="offset" />
          </mxGeometry>
        </mxCell>
        <mxCell id="sgRpY-t1hcTvcgmv33BL-30" value="Slack" style="rounded=1;whiteSpace=wrap;html=1;fillColor=#f8cecc;strokeColor=#b85450;" vertex="1" parent="1">
          <mxGeometry x="212" y="930" width="120" height="60" as="geometry" />
        </mxCell>
        <mxCell id="sgRpY-t1hcTvcgmv33BL-33" value="Slack" style="rounded=1;whiteSpace=wrap;html=1;fillColor=#f8cecc;strokeColor=#b85450;" vertex="1" parent="1">
          <mxGeometry x="522" y="800" width="120" height="60" as="geometry" />
        </mxCell>
      </root>
    </mxGraphModel>
  </diagram>
</mxfile>
